{"version": "0.6.4", "modules": [{"plugin": "NYSTHI", "version": "0.6.47", "model": "PlateVerb", "params": [{"paramId": 0, "value": 0.19449995458126068, "toggle": 0}, {"paramId": 1, "value": 0.20099994540214539, "toggle": 0}, {"paramId": 2, "value": 0.19699995219707489, "toggle": 0}, {"paramId": 3, "value": 0.0}, {"paramId": 4, "value": 0.0}, {"paramId": 5, "value": 0.0}, {"paramId": 6, "value": 0.0}, {"paramId": 7, "value": 0.81399953365325928, "toggle": 0}, {"paramId": 8, "value": 0.77945941686630249, "toggle": 0}, {"paramId": 9, "value": 0.80700004100799561, "toggle": 0}, {"paramId": 10, "value": 0.79850012063980103, "toggle": 0}, {"paramId": 11, "value": 0.80100017786026001, "toggle": 0}, {"paramId": 12, "value": 0.0, "toggle": 0}], "pos": [0, 1]}, {"plugin": "AS", "version": "1.0.3", "model": "SineOSC", "params": [{"paramId": 0, "value": -1.7759995460510254, "toggle": 0}, {"paramId": 1, "value": 1.0, "toggle": 0}], "pos": [7, 1]}, {"plugin": "Bogaudio", "version": "1.1.35", "model": "Bogaudio-LFO", "params": [{"paramId": 0, "value": -4.0755009651184082, "toggle": 0}, {"paramId": 1, "value": 0.0, "toggle": 0}, {"paramId": 2, "value": 0.097500026226043701, "toggle": 0}, {"paramId": 3, "value": 0.28499993681907654, "toggle": 0}, {"paramId": 4, "value": -0.23999997973442078, "toggle": 0}, {"paramId": 5, "value": 1.0, "toggle": 0}], "data": {}, "pos": [18, 1]}, {"plugin": "Core", "version": "0.6.4", "model": "Notes", "params": [], "width": 315.0, "text": "20220630sinPasserTea-synthesizerSketchFromNature正弦麻雀茶-合成器写生\n#\npatchByGnimuyAij\n#\nsin==aircraft==green\n#\nbrid==red\n#\ntea==yellow\n#", "pos": [67, 1]}, {"plugin": "Bogaudio", "version": "1.1.35", "model": "Bogaudio-Chirp", "params": [{"paramId": 0, "value": 0.43050128221511841, "toggle": 0}, {"paramId": 1, "value": 3.8444981575012207, "toggle": 0}, {"paramId": 2, "value": 3.623988151550293, "toggle": 0}, {"paramId": 3, "value": 0.0, "toggle": 0}, {"paramId": 4, "value": 1.0, "toggle": 0}, {"paramId": 5, "value": 1.0, "toggle": 0}], "data": {}, "pos": [13, 1]}, {"plugin": "Bogaudio", "version": "1.1.35", "model": "Bogaudio-Mix8", "params": [{"paramId": 0, "value": 0.0, "toggle": 0}, {"paramId": 1, "value": 0.0, "toggle": 0}, {"paramId": 2, "value": 0.0, "toggle": 0}, {"paramId": 3, "value": 0.0, "toggle": 0}, {"paramId": 4, "value": 0.0, "toggle": 0}, {"paramId": 5, "value": 0.0, "toggle": 0}, {"paramId": 6, "value": 0.0, "toggle": 0}, {"paramId": 7, "value": 0.0, "toggle": 0}, {"paramId": 8, "value": 0.0, "toggle": 0}, {"paramId": 9, "value": 0.90909093618392944, "toggle": 0}, {"paramId": 10, "value": 0.0, "toggle": 0}, {"paramId": 11, "value": 0.0, "toggle": 0}, {"paramId": 12, "value": 0.90909093618392944, "toggle": 0}, {"paramId": 13, "value": 0.0, "toggle": 0}, {"paramId": 14, "value": 0.0, "toggle": 0}, {"paramId": 15, "value": 0.90909093618392944, "toggle": 0}, {"paramId": 16, "value": 0.0, "toggle": 0}, {"paramId": 17, "value": 0.0, "toggle": 0}, {"paramId": 18, "value": 0.90909093618392944, "toggle": 0}, {"paramId": 19, "value": 0.0, "toggle": 0}, {"paramId": 20, "value": 0.0, "toggle": 0}, {"paramId": 21, "value": 0.62589126825332642, "toggle": 0}, {"paramId": 22, "value": 0.0, "toggle": 0}, {"paramId": 23, "value": 0.0, "toggle": 0}, {"paramId": 24, "value": 0.90909093618392944, "toggle": 0}, {"paramId": 25, "value": 0.0, "toggle": 0}, {"paramId": 26, "value": 0.0, "toggle": 0}], "data": {"dim_decibels": 12.0, "poly_channel_offset": -1}, "pos": [14, 0]}, {"plugin": "Bogaudio", "version": "1.1.35", "model": "Bogaudio-Lmtr", "params": [{"paramId": 0, "value": 0.80000001192092896, "toggle": 0}, {"paramId": 1, "value": 0.0, "toggle": 0}, {"paramId": 2, "value": 0.0, "toggle": 0}], "data": {}, "pos": [8, 0]}, {"plugin": "Core", "version": "0.6.4", "model": "AudioInterface", "params": [], "pos": [5, 0]}, {"plugin": "AudibleInstruments", "version": "1.0.0", "model": "Braids", "params": [{"paramId": 0, "value": -1.0, "toggle": 0}, {"paramId": 1, "value": -1.4599999189376831, "toggle": 0}, {"paramId": 2, "value": -0.76800012588500977, "toggle": 0}, {"paramId": 3, "value": 0.16850107908248901, "toggle": 0}, {"paramId": 4, "value": 0.0, "toggle": 0}, {"paramId": 5, "value": 1.0, "toggle": 0}, {"paramId": 6, "value": 0.94599992036819458, "toggle": 0}], "data": {"settings": [44, 0, 0, 0, 0, 0, 0, 0, 0, 0, 0, 0, 0, 0, 0, 0, 0, 0, 0, 0], "lowCpu": false}, "pos": [29, 1]}, {"plugin": "NYSTHI", "version": "0.6.47", "model": "MasterRecorder", "params": [{"paramId": 0, "value": 0.0, "toggle": 0}, {"paramId": 1, "value": 0.0, "toggle": 0}, {"paramId": 2, "value": 0.0, "toggle": 0}], "data": {"nysthi_id": "MR_TXkH3bA0", "wavebits": 9}, "pos": [0, 0]}, {"plugin": "ImpromptuModular", "version": "0.6.17", "model": "Clocked", "params": [{"paramId": 0, "value": 30.0, "toggle": 0}, {"paramId": 1, "value": -19.0, "toggle": 0}, {"paramId": 2, "value": 0.0, "toggle": 0}, {"paramId": 3, "value": -21.0, "toggle": 0}, {"paramId": 4, "value": 0.0, "toggle": 0}, {"paramId": 5, "value": 0.0, "toggle": 0}, {"paramId": 6, "value": 0.0, "toggle": 0}, {"paramId": 7, "value": 0.16500002145767212, "toggle": 0}, {"paramId": 8, "value": 0.5, "toggle": 0}, {"paramId": 9, "value": 0.5, "toggle": 0}, {"paramId": 10, "value": 0.5, "toggle": 0}, {"paramId": 11, "value": 0.5, "toggle": 0}, {"paramId": 12, "value": 0.0, "toggle": 0}, {"paramId": 13, "value": 0.0, "toggle": 0}, {"paramId": 14, "value": 0.0}, {"paramId": 15, "value": 2.0, "toggle": 0}, {"paramId": 16, "value": 0.0, "toggle": 0}, {"paramId": 17, "value": 6.0, "toggle": 0}, {"paramId": 18, "value": 0.0, "toggle": 0}, {"paramId": 19, "value": 0.0, "toggle": 0}], "data": {"running": true, "panelTheme": 0, "expansion": 0, "displayDelayNoteMode": true, "bpmDetectionMode": true, "emitResetOnStopRun": false, "ppqn": 2, "resetClockOutputsHigh": true, "momentaryRunInput": false}, "pos": [46, 1]}, {"plugin": "SubmarineFree", "version": "0.6.8", "model": "LA-108", "params": [{"paramId": 0, "value": 0.0, "toggle": 0}, {"paramId": 1, "value": 0.0, "toggle": 0}, {"paramId": 2, "value": -14.0, "toggle": 0}, {"paramId": 3, "value": 0.0, "toggle": 0}, {"paramId": 4, "value": 1.0, "toggle": 0}, {"paramId": 5, "value": 0.0, "toggle": 0}, {"paramId": 6, "value": 0.0, "toggle": 0}, {"paramId": 7, "value": 0.0, "toggle": 0}], "data": {"voltage0": 0.0, "voltage1": 10.0}, "pos": [68, 0]}, {"plugin": "SubmarineFree", "version": "0.6.8", "model": "EO-102", "params": [{"paramId": 0, "value": 0.0, "toggle": 0}, {"paramId": 1, "value": 0.0, "toggle": 0}, {"paramId": 2, "value": 0.0, "toggle": 0}, {"paramId": 3, "value": 0.0, "toggle": 0}, {"paramId": 4, "value": 0.0, "toggle": 0}, {"paramId": 5, "value": -14.0, "toggle": 0}, {"paramId": 6, "value": 0.0, "toggle": 0}, {"paramId": 7, "value": 1.0, "toggle": 0}, {"paramId": 8, "value": 0.5, "toggle": 0}, {"paramId": 9, "value": 0.0, "toggle": 0}, {"paramId": 10, "value": 1.0, "toggle": 0}, {"paramId": 11, "value": 0.0, "toggle": 0}, {"paramId": 12, "value": 0.0, "toggle": 0}, {"paramId": 13, "value": 0.0, "toggle": 0}], "pos": [41, 0]}, {"plugin": "NYSTHI", "version": "0.6.47", "model": "OP", "params": [{"paramId": 0, "value": -2.0, "toggle": 0}, {"paramId": 1, "value": 0.67400002479553223, "toggle": 0}, {"paramId": 2, "value": 0.0, "toggle": 0}, {"paramId": 3, "value": 0.0, "toggle": 0}, {"paramId": 4, "value": 7.0, "toggle": 0}, {"paramId": 5, "value": 0.0, "toggle": 0}], "data": {"m_fb": false}, "pos": [11, 1]}], "wires": [{"colorIndex": 2, "outputModuleId": 0, "outputId": 1, "inputModuleId": 5, "inputId": 5}, {"colorIndex": 3, "outputModuleId": 6, "outputId": 1, "inputModuleId": 7, "inputId": 1}, {"colorIndex": 3, "outputModuleId": 6, "outputId": 0, "inputModuleId": 7, "inputId": 0}, {"colorIndex": 0, "outputModuleId": 8, "outputId": 0, "inputModuleId": 5, "inputId": 11}, {"colorIndex": 0, "outputModuleId": 8, "outputId": 0, "inputModuleId": 8, "inputId": 3}, {"colorIndex": 0, "outputModuleId": 8, "outputId": 0, "inputModuleId": 8, "inputId": 1}, {"colorIndex": 3, "outputModuleId": 6, "outputId": 0, "inputModuleId": 12, "inputId": 0}, {"colorIndex": 3, "outputModuleId": 6, "outputId": 1, "inputModuleId": 12, "inputId": 1}, {"colorIndex": 1, "outputModuleId": 10, "outputId": 3, "inputModuleId": 5, "inputId": 6}, {"colorIndex": 3, "outputModuleId": 5, "outputId": 0, "inputModuleId": 6, "inputId": 0}, {"colorIndex": 3, "outputModuleId": 5, "outputId": 1, "inputModuleId": 6, "inputId": 1}, {"colorIndex": 3, "outputModuleId": 6, "outputId": 0, "inputModuleId": 9, "inputId": 0}, {"colorIndex": 3, "outputModuleId": 6, "outputId": 1, "inputModuleId": 9, "inputId": 1}, {"colorIndex": 1, "outputModuleId": 2, "outputId": 2, "inputModuleId": 4, "inputId": 1}, {"colorIndex": 3, "outputModuleId": 5, "outputId": 0, "inputModuleId": 11, "inputId": 0}, {"colorIndex": 2, "outputModuleId": 0, "outputId": 1, "inputModuleId": 11, "inputId": 1}, {"colorIndex": 1, "outputModuleId": 4, "outputId": 1, "inputModuleId": 11, "inputId": 3}, {"colorIndex": 0, "outputModuleId": 8, "outputId": 0, "inputModuleId": 11, "inputId": 4}, {"colorIndex": 1, "outputModuleId": 4, "outputId": 1, "inputModuleId": 5, "inputId": 8}, {"colorIndex": 2, "outputModuleId": 13, "outputId": 0, "inputModuleId": 0, "inputId": 7}, {"colorIndex": 2, "outputModuleId": 13, "outputId": 0, "inputModuleId": 0, "inputId": 6}, {"colorIndex": 2, "outputModuleId": 13, "outputId": 0, "inputModuleId": 0, "inputId": 1}, {"colorIndex": 2, "outputModuleId": 1, "outputId": 0, "inputModuleId": 0, "inputId": 0}, {"colorIndex": 2, "outputModuleId": 0, "outputId": 0, "inputModuleId": 5, "inputId": 2}]}