{"version": "0.6.4", "modules": [{"plugin": "NYSTHI", "version": "0.6.47", "model": "PlateVerb", "params": [{"paramId": 0, "value": 0.65817588567733765, "toggle": 0}, {"paramId": 1, "value": 0.0054039955139160156, "toggle": 0}, {"paramId": 2, "value": 0.14629560708999634, "toggle": 0}, {"paramId": 3, "value": 0.0}, {"paramId": 4, "value": 0.0}, {"paramId": 5, "value": 0.0}, {"paramId": 6, "value": 0.0}, {"paramId": 7, "value": 0.3469841480255127, "toggle": 0}, {"paramId": 8, "value": 0.61419099569320679, "toggle": 0}, {"paramId": 9, "value": 0.41428166627883911, "toggle": 0}, {"paramId": 10, "value": 0.86114579439163208, "toggle": 0}, {"paramId": 11, "value": 0.82418203353881836, "toggle": 0}, {"paramId": 12, "value": 0.0, "toggle": 0}], "pos": [18, 3]}, {"plugin": "Bogaudio", "version": "1.1.35", "model": "Bogaudio-Lmtr", "params": [{"paramId": 0, "value": 0.80000001192092896, "toggle": 0}, {"paramId": 1, "value": 0.0, "toggle": 0}, {"paramId": 2, "value": 0.0, "toggle": 0}], "data": {}, "pos": [10, 2]}, {"plugin": "Core", "version": "0.6.4", "model": "AudioInterface", "params": [], "pos": [7, 2]}, {"plugin": "NYSTHI", "version": "0.6.47", "model": "MasterRecorder", "params": [{"paramId": 0, "value": 0.0, "toggle": 0}, {"paramId": 1, "value": 0.0, "toggle": 0}, {"paramId": 2, "value": 0.0, "toggle": 0}], "data": {"nysthi_id": "MR_TXkH3bA0", "wavebits": 9}, "pos": [2, 2]}, {"plugin": "NYSTHI", "version": "0.6.47", "model": "OP", "params": [{"paramId": 0, "value": 0.0, "toggle": 0}, {"paramId": 1, "value": -0.0929998978972435, "toggle": 0}, {"paramId": 2, "value": 0.0, "toggle": 0}, {"paramId": 3, "value": 0.0, "toggle": 0}, {"paramId": 4, "value": 5.0, "toggle": 0}, {"paramId": 5, "value": 0.0, "toggle": 0}], "data": {"m_fb": false}, "pos": [25, 3]}, {"plugin": "mscHack", "version": "1.0.2", "model": "Windz", "params": [{"paramId": 0, "value": 4.0, "toggle": 0}], "data": {"m_Seed": [-2091137302]}, "pos": [7, 3]}, {"plugin": "Befaco", "version": "1.0.0", "model": "Mixer", "params": [{"paramId": 0, "value": 1.0, "toggle": 0}, {"paramId": 1, "value": 0.99250000715255737, "toggle": 0}, {"paramId": 2, "value": 0.99699997901916504, "toggle": 0}, {"paramId": 3, "value": 1.0, "toggle": 0}], "pos": [2, 3]}, {"plugin": "NYSTHI", "version": "0.6.47", "model": "PlateVerb", "params": [{"paramId": 0, "value": 0.69999998807907104, "toggle": 0}, {"paramId": 1, "value": 0.20000000298023224, "toggle": 0}, {"paramId": 2, "value": 0.5, "toggle": 0}, {"paramId": 3, "value": 0.0}, {"paramId": 4, "value": 0.0}, {"paramId": 5, "value": 0.0}, {"paramId": 6, "value": 0.0}, {"paramId": 7, "value": 0.89999997615814209, "toggle": 0}, {"paramId": 8, "value": 0.89999997615814209, "toggle": 0}, {"paramId": 9, "value": 0.30000001192092896, "toggle": 0}, {"paramId": 10, "value": 0.5, "toggle": 0}, {"paramId": 11, "value": 0.5, "toggle": 0}, {"paramId": 12, "value": 0.0, "toggle": 0}], "pos": [26, 3]}, {"plugin": "ImpromptuModular", "version": "0.6.17", "model": "Clocked", "params": [{"paramId": 0, "value": 120.0, "toggle": 0}, {"paramId": 1, "value": -17.0, "toggle": 0}, {"paramId": 2, "value": -33.0, "toggle": 0}, {"paramId": 3, "value": 0.0, "toggle": 0}, {"paramId": 4, "value": 0.37200003862380981, "toggle": 0}, {"paramId": 5, "value": 0.0, "toggle": 0}, {"paramId": 6, "value": 0.0, "toggle": 0}, {"paramId": 7, "value": 0.0, "toggle": 0}, {"paramId": 8, "value": 0.66650032997131348, "toggle": 0}, {"paramId": 9, "value": 0.5, "toggle": 0}, {"paramId": 10, "value": 0.5, "toggle": 0}, {"paramId": 11, "value": 0.5, "toggle": 0}, {"paramId": 12, "value": 0.0, "toggle": 0}, {"paramId": 13, "value": 0.0, "toggle": 0}, {"paramId": 14, "value": 0.0}, {"paramId": 15, "value": 5.0, "toggle": 0}, {"paramId": 16, "value": 0.0, "toggle": 0}, {"paramId": 17, "value": 0.0, "toggle": 0}, {"paramId": 18, "value": 0.0, "toggle": 0}, {"paramId": 19, "value": 0.0, "toggle": 0}], "data": {"running": true, "panelTheme": 0, "expansion": 0, "displayDelayNoteMode": true, "bpmDetectionMode": false, "emitResetOnStopRun": false, "ppqn": 4, "resetClockOutputsHigh": true, "momentaryRunInput": false}, "pos": [16, 2]}, {"plugin": "AudibleInstruments", "version": "1.0.0", "model": "Elements", "params": [{"paramId": 0, "value": 0.58299946784973145, "toggle": 0}, {"paramId": 1, "value": 0.60600006580352783, "toggle": 0}, {"paramId": 2, "value": 0.91583365201950073, "toggle": 0}, {"paramId": 3, "value": 0.0, "toggle": 0}, {"paramId": 4, "value": -8.7427225112915039, "toggle": 0}, {"paramId": 5, "value": -0.62758272886276245, "toggle": 0}, {"paramId": 6, "value": 0.69399988651275635, "toggle": 0}, {"paramId": 7, "value": 0.60650002956390381, "toggle": 0}, {"paramId": 8, "value": 0.5, "toggle": 0}, {"paramId": 9, "value": 0.44424599409103394, "toggle": 0}, {"paramId": 10, "value": 0.0, "toggle": 0}, {"paramId": 11, "value": 0.10296330600976944, "toggle": 0}, {"paramId": 12, "value": 0.25800004601478577, "toggle": 0}, {"paramId": 13, "value": 0.5, "toggle": 0}, {"paramId": 14, "value": 0.3386913537979126, "toggle": 0}, {"paramId": 15, "value": 0.66771125793457031, "toggle": 0}, {"paramId": 16, "value": 1.6259909868240356, "toggle": 0}, {"paramId": 17, "value": 0.0, "toggle": 0}, {"paramId": 18, "value": 0.0, "toggle": 0}, {"paramId": 19, "value": 0.0, "toggle": 0}, {"paramId": 20, "value": 0.0, "toggle": 0}, {"paramId": 21, "value": 0.0, "toggle": 0}, {"paramId": 22, "value": 0.0, "toggle": 0}, {"paramId": 23, "value": 0.0, "toggle": 0}, {"paramId": 24, "value": 0.0, "toggle": 0}, {"paramId": 25, "value": 0.0, "toggle": 0}, {"paramId": 26, "value": 0.0, "toggle": 0}, {"paramId": 27, "value": 0.0, "toggle": 0}], "data": {"model": 0, "inverted_strength": false}, "pos": [33, 3]}, {"plugin": "squinkylabs-plug1", "version": "1.0.11", "model": "squinkylabs-lfn", "params": [{"paramId": 0, "value": 1.1894893646240234, "toggle": 0}, {"paramId": 1, "value": 0.77487707138061523, "toggle": 0}, {"paramId": 2, "value": 4.0193881988525391, "toggle": 0}, {"paramId": 3, "value": 1.4084048271179199, "toggle": 0}, {"paramId": 4, "value": 3.9001178741455078, "toggle": 0}, {"paramId": 5, "value": 0.24018837511539459, "toggle": 0}, {"paramId": 6, "value": 0.41190129518508911, "toggle": 0}], "pos": [36, 2]}, {"plugin": "mscHack", "version": "1.0.2", "model": "SynthDrums", "params": [{"paramId": 0, "value": 0.026999995112419128, "toggle": 0}, {"paramId": 1, "value": 0.0, "toggle": 0}, {"paramId": 2, "value": 0.13500002026557922, "toggle": 0}, {"paramId": 3, "value": 0.081000015139579773, "toggle": 0}, {"paramId": 4, "value": 0.0, "toggle": 0}, {"paramId": 5, "value": 0.16350001096725464, "toggle": 0}, {"paramId": 6, "value": 0.1979999840259552, "toggle": 0}, {"paramId": 7, "value": 0.0, "toggle": 0}, {"paramId": 8, "value": 0.39750000834465027, "toggle": 0}], "data": {"wavetypes": [4, 4, 4]}, "pos": [42, 1]}, {"plugin": "NYSTHI", "version": "0.6.47", "model": "M2", "params": [{"paramId": 0, "value": 1.0, "toggle": 0}, {"paramId": 1, "value": 1.0, "toggle": 0}, {"paramId": 2, "value": 1.0, "toggle": 0}, {"paramId": 3, "value": 1.0, "toggle": 0}, {"paramId": 4, "value": 0.0}, {"paramId": 5, "value": 0.0, "toggle": 0}, {"paramId": 6, "value": 0.0, "toggle": 0}, {"paramId": 7, "value": 0.0, "toggle": 0}, {"paramId": 8, "value": 0.0, "toggle": 0}, {"paramId": 9, "value": 0.0}, {"paramId": 10, "value": 0.36900010704994202, "toggle": 0}], "data": {"m_mute0": false, "m_mute1": false, "m_mute2": false, "m_mute3": false, "m_4_quadrants_VCA": true, "m_exponential_levels": false}, "pos": [15, 1]}, {"plugin": "AS", "version": "1.0.3", "model": "Flow", "params": [{"paramId": 0, "value": 0.0, "toggle": 0}, {"paramId": 1, "value": 0.0, "toggle": 0}, {"paramId": 2, "value": 1.0, "toggle": 0}], "data": {"as_FlowStates": [0, 1]}, "pos": [12, 3]}, {"plugin": "NYSTHI", "version": "0.6.47", "model": "SevenSeas", "params": [{"paramId": 0, "value": 0.0}, {"paramId": 1, "value": 0.0, "toggle": 0}, {"paramId": 2, "value": 0.027000006288290024, "toggle": 0}, {"paramId": 3, "value": 0.0, "toggle": 0}, {"paramId": 4, "value": 1.0, "toggle": 0}, {"paramId": 5, "value": 0.0}, {"paramId": 6, "value": 0.0, "toggle": 0}, {"paramId": 7, "value": 0.0}, {"paramId": 8, "value": 0.0, "toggle": 0}, {"paramId": 9, "value": 0.0}, {"paramId": 10, "value": 0.03120001032948494, "toggle": 0}, {"paramId": 11, "value": 0.0, "toggle": 0}, {"paramId": 12, "value": 0.0010000000474974513, "toggle": 0}, {"paramId": 13, "value": 0.0010000000474974513, "toggle": 0}, {"paramId": 14, "value": 0.0010000000474974513, "toggle": 0}, {"paramId": 15, "value": 0.0010000000474974513, "toggle": 0}, {"paramId": 16, "value": 0.0, "toggle": 0}, {"paramId": 17, "value": 0.0, "toggle": 0}, {"paramId": 18, "value": 0.058497652411460876, "toggle": 0}, {"paramId": 19, "value": 0.0, "toggle": 0}, {"paramId": 20, "value": 0.0}], "data": {"m_decimate_mode": 0, "m_current_octave": 0, "m_bank": 0.0019923355430364609, "m_wave": 31.938146591186523, "m_pw": 0.5, "m_swarming": false, "m_morphing": true, "m_dc_block": true, "m_multithreaded": false, "m_multithreaded_processing_block": 256, "m_bank_navigator_scale": 4.0, "m_global_original_file_name": "sevenseas_default", "m_original_file_name_array": ["", "", "", "", "", "", "", "", "", "", "", "", "", "", "", "", "", "", "", "", "", "", "", "", "", "", "", "", "", "", "", "", "", "", "", "", "", "", "", "", "", "", "", "", "", "", "", "", "", "", "", "", "", "", "", "", "", "", "", "", "", "", "", ""]}, "pos": [24, 1]}, {"plugin": "Mental", "version": "1.0.2", "model": "MentalMasterClock", "params": [{"paramId": 0, "value": 120.0, "toggle": 0}, {"paramId": 1, "value": 15.0, "toggle": 0}, {"paramId": 2, "value": 1.2925000190734863, "toggle": 0}, {"paramId": 3, "value": 0.0, "toggle": 0}, {"paramId": 4, "value": 0.0, "toggle": 0}], "data": {"run": [1]}, "pos": [16, 1]}, {"plugin": "NYSTHI", "version": "0.6.47", "model": "PlateVerb", "params": [{"paramId": 0, "value": 0.31239902973175049, "toggle": 0}, {"paramId": 1, "value": 0.72040784358978271, "toggle": 0}, {"paramId": 2, "value": 0.12414681911468506, "toggle": 0}, {"paramId": 3, "value": 0.0}, {"paramId": 4, "value": 0.0}, {"paramId": 5, "value": 0.0}, {"paramId": 6, "value": 0.0}, {"paramId": 7, "value": 0.67908746004104614, "toggle": 0}, {"paramId": 8, "value": 0.55580288171768188, "toggle": 0}, {"paramId": 9, "value": 0.074677705764770508, "toggle": 0}, {"paramId": 10, "value": 0.77752602100372314, "toggle": 0}, {"paramId": 11, "value": 0.21610665321350098, "toggle": 0}, {"paramId": 12, "value": 0.0, "toggle": 0}], "pos": [53, 1]}, {"plugin": "Southpole", "version": "0.6.0", "model": "CornrowsX", "params": [{"paramId": 0, "value": 0.0, "toggle": 0}, {"paramId": 1, "value": 0.0, "toggle": 0}, {"paramId": 2, "value": 0.0, "toggle": 0}, {"paramId": 3, "value": 0.086000360548496246, "toggle": 0}, {"paramId": 4, "value": 0.0, "toggle": 0}, {"paramId": 5, "value": 0.5, "toggle": 0}, {"paramId": 6, "value": 0.58149880170822144, "toggle": 0}, {"paramId": 7, "value": 0.0, "toggle": 0}, {"paramId": 8, "value": 0.5, "toggle": 0}, {"paramId": 9, "value": 0.0, "toggle": 0}, {"paramId": 10, "value": 0.0, "toggle": 0}, {"paramId": 11, "value": 0.5, "toggle": 0}, {"paramId": 12, "value": 0.0, "toggle": 0}, {"paramId": 13, "value": 0.0, "toggle": 0}, {"paramId": 14, "value": 0.0, "toggle": 0}, {"paramId": 15, "value": 1.0, "toggle": 0}, {"paramId": 16, "value": 1.0, "toggle": 0}, {"paramId": 17, "value": 0.0, "toggle": 0}, {"paramId": 18, "value": 0.0, "toggle": 0}], "data": {"settings": [27, 6, 6, 0, 0, 0, 0, 0, 2, 0, 0, 0, 0, 0, 0, 7, 0, 0, 0, 0], "lowCpu": false}, "pos": [60, 1]}, {"plugin": "NYSTHI", "version": "0.6.47", "model": "mix8", "params": [{"paramId": 0, "value": 0.0, "toggle": 0}, {"paramId": 1, "value": 0.0, "toggle": 0}, {"paramId": 2, "value": 0.0, "toggle": 0}, {"paramId": 3, "value": 0.0, "toggle": 0}, {"paramId": 4, "value": 0.0, "toggle": 0}, {"paramId": 5, "value": 0.0, "toggle": 0}, {"paramId": 6, "value": 0.0, "toggle": 0}, {"paramId": 7, "value": 0.0, "toggle": 0}, {"paramId": 8, "value": 0.0}, {"paramId": 9, "value": 0.0, "toggle": 0}, {"paramId": 10, "value": 0.0, "toggle": 0}, {"paramId": 11, "value": 0.0, "toggle": 0}, {"paramId": 12, "value": 0.0, "toggle": 0}, {"paramId": 13, "value": 0.0, "toggle": 0}, {"paramId": 14, "value": 0.0, "toggle": 0}, {"paramId": 15, "value": 0.0, "toggle": 0}, {"paramId": 16, "value": 0.0, "toggle": 0}, {"paramId": 17, "value": 0.0}, {"paramId": 18, "value": 0.0, "toggle": 0}, {"paramId": 19, "value": 0.0, "toggle": 0}, {"paramId": 20, "value": 0.0, "toggle": 0}, {"paramId": 21, "value": 0.0, "toggle": 0}, {"paramId": 22, "value": 0.0, "toggle": 0}, {"paramId": 23, "value": 0.0, "toggle": 0}, {"paramId": 24, "value": 0.0, "toggle": 0}, {"paramId": 25, "value": 0.0, "toggle": 0}, {"paramId": 26, "value": 0.0}, {"paramId": 27, "value": 0.0, "toggle": 0}, {"paramId": 28, "value": 0.0, "toggle": 0}, {"paramId": 29, "value": 0.0, "toggle": 0}, {"paramId": 30, "value": 0.0, "toggle": 0}, {"paramId": 31, "value": 0.0, "toggle": 0}, {"paramId": 32, "value": 0.0, "toggle": 0}, {"paramId": 33, "value": 0.0, "toggle": 0}, {"paramId": 34, "value": 0.0, "toggle": 0}, {"paramId": 35, "value": 0.0}, {"paramId": 36, "value": 0.0, "toggle": 0}, {"paramId": 37, "value": 0.0, "toggle": 0}, {"paramId": 38, "value": 0.0, "toggle": 0}, {"paramId": 39, "value": 0.0, "toggle": 0}], "data": {"m_channels": [1.449272632598877, 0.5, false, false, 1.6149364709854126, 0.5, false, false, 1.5366261005401611, 0.5, false, false, 1.9989547729492188, 0.5, false, false, 1.0, 0.5, false, false, 1.0, 0.5, false, false, 1.0, 0.5, false, false, 1.0, 0.5, false, false], "m_master_volume": 1.0, "m_master_mute_trig": false, "m_low_power": false, "m_cvcompatible": false, "m_show_post_out": false, "m_post_outputs_unaffected_by_solo_mode": false}, "pos": [2, 1]}, {"plugin": "SubmarineFree", "version": "0.6.8", "model": "TD-202", "params": [], "text": "lastDropOfRedBull", "fg": "#29b2ef", "bg": "#00000000", "pos": [67, 3]}, {"plugin": "Bogaudio", "version": "1.1.35", "model": "Bogaudio-Analyzer", "params": [{"paramId": 0, "value": 0.0}, {"paramId": 1, "value": 0.59974962472915649, "toggle": 0}, {"paramId": 2, "value": 1.0, "toggle": 0}, {"paramId": 3, "value": 0.0}, {"paramId": 4, "value": 1.0, "toggle": 0}, {"paramId": 5, "value": 0.0, "toggle": 0}], "data": {"frequency_plot": "log", "amplitude_plot": "decibels_80"}, "pos": [48, 0]}, {"plugin": "SubmarineFree", "version": "0.6.8", "model": "EO-102", "params": [{"paramId": 0, "value": 0.0, "toggle": 0}, {"paramId": 1, "value": 4.0, "toggle": 0}, {"paramId": 2, "value": 0.0, "toggle": 0}, {"paramId": 3, "value": -7.3299961090087891, "toggle": 0}, {"paramId": 4, "value": 0.0, "toggle": 0}, {"paramId": 5, "value": -14.0, "toggle": 0}, {"paramId": 6, "value": 0.0, "toggle": 0}, {"paramId": 7, "value": 1.0, "toggle": 0}, {"paramId": 8, "value": 0.5, "toggle": 0}, {"paramId": 9, "value": 0.0, "toggle": 0}, {"paramId": 10, "value": 1.0, "toggle": 0}, {"paramId": 11, "value": 0.0, "toggle": 0}, {"paramId": 12, "value": 0.0, "toggle": 0}, {"paramId": 13, "value": 1.0, "toggle": 0}], "pos": [42, 2]}, {"plugin": "Bogaudio", "version": "1.1.35", "model": "Bogaudio-Ranalyzer", "params": [{"paramId": 0, "value": 0.071500308811664581, "toggle": 0}, {"paramId": 1, "value": 0.0, "toggle": 0}, {"paramId": 2, "value": 0.0, "toggle": 0}, {"paramId": 3, "value": 0.85412931442260742, "toggle": 0}, {"paramId": 4, "value": 0.88997125625610352, "toggle": 0}, {"paramId": 5, "value": 10.424402236938477, "toggle": 0}], "data": {"frequency_plot": "log", "range": 0.0, "amplitude_plot": "decibels_80", "triggerOnLoad": true, "display_traces": "all", "window_type": "taper"}, "pos": [2, 0]}], "wires": [{"colorIndex": 0, "outputModuleId": 1, "outputId": 1, "inputModuleId": 2, "inputId": 1}, {"colorIndex": 0, "outputModuleId": 1, "outputId": 0, "inputModuleId": 2, "inputId": 0}, {"colorIndex": 0, "outputModuleId": 1, "outputId": 1, "inputModuleId": 3, "inputId": 1}, {"colorIndex": 0, "outputModuleId": 1, "outputId": 0, "inputModuleId": 3, "inputId": 0}, {"colorIndex": 1, "outputModuleId": 6, "outputId": 0, "inputModuleId": 0, "inputId": 0}, {"colorIndex": 1, "outputModuleId": 6, "outputId": 0, "inputModuleId": 0, "inputId": 1}, {"colorIndex": 1, "outputModuleId": 5, "outputId": 1, "inputModuleId": 6, "inputId": 1}, {"colorIndex": 1, "outputModuleId": 5, "outputId": 0, "inputModuleId": 6, "inputId": 0}, {"colorIndex": 1, "outputModuleId": 5, "outputId": 1, "inputModuleId": 6, "inputId": 2}, {"colorIndex": 1, "outputModuleId": 5, "outputId": 0, "inputModuleId": 6, "inputId": 3}, {"colorIndex": 1, "outputModuleId": 0, "outputId": 0, "inputModuleId": 18, "inputId": 0}, {"colorIndex": 1, "outputModuleId": 0, "outputId": 1, "inputModuleId": 18, "inputId": 9}, {"colorIndex": 2, "outputModuleId": 9, "outputId": 1, "inputModuleId": 7, "inputId": 1}, {"colorIndex": 2, "outputModuleId": 7, "outputId": 1, "inputModuleId": 18, "inputId": 10}, {"colorIndex": 2, "outputModuleId": 8, "outputId": 1, "inputModuleId": 10, "inputId": 0}, {"colorIndex": 2, "outputModuleId": 8, "outputId": 2, "inputModuleId": 10, "inputId": 1}, {"colorIndex": 2, "outputModuleId": 8, "outputId": 3, "inputModuleId": 10, "inputId": 2}, {"colorIndex": 2, "outputModuleId": 10, "outputId": 0, "inputModuleId": 9, "inputId": 2}, {"colorIndex": 0, "outputModuleId": 17, "outputId": 0, "inputModuleId": 16, "inputId": 0}, {"colorIndex": 2, "outputModuleId": 8, "outputId": 2, "inputModuleId": 0, "inputId": 11}, {"colorIndex": 2, "outputModuleId": 8, "outputId": 2, "inputModuleId": 17, "inputId": 1}, {"colorIndex": 2, "outputModuleId": 7, "outputId": 0, "inputModuleId": 18, "inputId": 1}, {"colorIndex": 2, "outputModuleId": 9, "outputId": 0, "inputModuleId": 7, "inputId": 0}, {"colorIndex": 4, "outputModuleId": 11, "outputId": 0, "inputModuleId": 12, "inputId": 0}, {"colorIndex": 4, "outputModuleId": 11, "outputId": 1, "inputModuleId": 12, "inputId": 1}, {"colorIndex": 4, "outputModuleId": 11, "outputId": 2, "inputModuleId": 12, "inputId": 2}, {"colorIndex": 1, "outputModuleId": 4, "outputId": 0, "inputModuleId": 13, "inputId": 0}, {"colorIndex": 1, "outputModuleId": 13, "outputId": 0, "inputModuleId": 5, "inputId": 0}, {"colorIndex": 4, "outputModuleId": 15, "outputId": 3, "inputModuleId": 11, "inputId": 4}, {"colorIndex": 4, "outputModuleId": 15, "outputId": 1, "inputModuleId": 11, "inputId": 5}, {"colorIndex": 4, "outputModuleId": 15, "outputId": 0, "inputModuleId": 11, "inputId": 3}, {"colorIndex": 4, "outputModuleId": 14, "outputId": 1, "inputModuleId": 11, "inputId": 6}, {"colorIndex": 0, "outputModuleId": 17, "outputId": 0, "inputModuleId": 16, "inputId": 1}, {"colorIndex": 0, "outputModuleId": 16, "outputId": 0, "inputModuleId": 18, "inputId": 2}, {"colorIndex": 0, "outputModuleId": 16, "outputId": 1, "inputModuleId": 18, "inputId": 11}, {"colorIndex": 0, "outputModuleId": 14, "outputId": 0, "inputModuleId": 17, "inputId": 3}, {"colorIndex": 4, "outputModuleId": 12, "outputId": 0, "inputModuleId": 18, "inputId": 3}, {"colorIndex": 4, "outputModuleId": 12, "outputId": 0, "inputModuleId": 18, "inputId": 12}, {"colorIndex": 0, "outputModuleId": 18, "outputId": 0, "inputModuleId": 1, "inputId": 0}, {"colorIndex": 0, "outputModuleId": 18, "outputId": 1, "inputModuleId": 1, "inputId": 1}, {"colorIndex": 0, "outputModuleId": 15, "outputId": 2, "inputModuleId": 14, "inputId": 1}, {"colorIndex": 0, "outputModuleId": 18, "outputId": 0, "inputModuleId": 20, "inputId": 0}, {"colorIndex": 2, "outputModuleId": 6, "outputId": 1, "inputModuleId": 21, "inputId": 1}, {"colorIndex": 1, "outputModuleId": 6, "outputId": 1, "inputModuleId": 20, "inputId": 1}, {"colorIndex": 2, "outputModuleId": 14, "outputId": 0, "inputModuleId": 20, "inputId": 2}, {"colorIndex": 3, "outputModuleId": 10, "outputId": 0, "inputModuleId": 22, "inputId": 1}]}