{"version": "0.6.4", "modules": [{"plugin": "NYSTHI", "version": "0.6.47", "model": "PlateVerb", "params": [{"paramId": 0, "value": 0.014169037342071533, "toggle": 0}, {"paramId": 1, "value": 0.98008811473846436, "toggle": 0}, {"paramId": 2, "value": 0.89193934202194214, "toggle": 0}, {"paramId": 3, "value": 0.0}, {"paramId": 4, "value": 0.0}, {"paramId": 5, "value": 0.0}, {"paramId": 6, "value": 0.0}, {"paramId": 7, "value": 0.57925069332122803, "toggle": 0}, {"paramId": 8, "value": 0.78891539573669434, "toggle": 0}, {"paramId": 9, "value": 0.16872948408126831, "toggle": 0}, {"paramId": 10, "value": 0.5, "toggle": 0}, {"paramId": 11, "value": 0.92958849668502808, "toggle": 0}, {"paramId": 12, "value": 0.0, "toggle": 0}], "pos": [0, 1]}, {"plugin": "Core", "version": "0.6.4", "model": "Notes", "params": [], "width": 255.0, "text": "20220705base\n#\npatchByGnimuyAij\n#\nred&green\nhuMai4\nTIMBER#gai3bian4fa1sheng1\n#\nperpol\nda3ji1\n#\nbule\nxin1tiao3\n#", "pos": [0, 0]}, {"plugin": "Bogaudio", "version": "1.1.35", "model": "Bogaudio-Lmtr", "params": [{"paramId": 0, "value": 0.80000001192092896, "toggle": 0}, {"paramId": 1, "value": 0.0, "toggle": 0}, {"paramId": 2, "value": 0.0, "toggle": 0}], "data": {}, "pos": [72, 0]}, {"plugin": "Core", "version": "0.6.4", "model": "AudioInterface", "params": [], "pos": [69, 0]}, {"plugin": "AudibleInstruments", "version": "1.0.0", "model": "Braids", "params": [{"paramId": 0, "value": -1.0, "toggle": 0}, {"paramId": 1, "value": -2.0, "toggle": 0}, {"paramId": 2, "value": 0.0, "toggle": 0}, {"paramId": 3, "value": 0.29499942064285278, "toggle": 0}, {"paramId": 4, "value": -0.026999998837709427, "toggle": 0}, {"paramId": 5, "value": 0.0, "toggle": 0}, {"paramId": 6, "value": 0.47100043296813965, "toggle": 0}], "data": {"settings": [22, 0, 0, 0, 0, 0, 0, 0, 0, 0, 0, 0, 0, 0, 0, 0, 0, 0, 0, 0], "lowCpu": false}, "pos": [7, 1]}, {"plugin": "NYSTHI", "version": "0.6.47", "model": "MasterRecorder", "params": [{"paramId": 0, "value": 0.0, "toggle": 0}, {"paramId": 1, "value": 0.0, "toggle": 0}, {"paramId": 2, "value": 0.0, "toggle": 0}], "data": {"nysthi_id": "MR_TXkH3bA0", "wavebits": 9}, "pos": [64, 0]}, {"plugin": "SubmarineFree", "version": "0.6.8", "model": "LA-108", "params": [{"paramId": 0, "value": 0.0, "toggle": 0}, {"paramId": 1, "value": 0.0, "toggle": 0}, {"paramId": 2, "value": -16.0, "toggle": 0}, {"paramId": 3, "value": 0.0, "toggle": 0}, {"paramId": 4, "value": 1.0, "toggle": 0}, {"paramId": 5, "value": 0.0, "toggle": 0}, {"paramId": 6, "value": 0.0, "toggle": 0}, {"paramId": 7, "value": 32.0, "toggle": 0}], "data": {"voltage0": 0.0, "voltage1": 10.0}, "pos": [44, 0]}, {"plugin": "SubmarineFree", "version": "0.6.8", "model": "EO-102", "params": [{"paramId": 0, "value": 3.0, "toggle": 0}, {"paramId": 1, "value": 3.0, "toggle": 0}, {"paramId": 2, "value": -2.4899990558624268, "toggle": 0}, {"paramId": 3, "value": 3.449998140335083, "toggle": 0}, {"paramId": 4, "value": 0.0, "toggle": 0}, {"paramId": 5, "value": -16.0, "toggle": 0}, {"paramId": 6, "value": 0.0, "toggle": 0}, {"paramId": 7, "value": 1.0, "toggle": 0}, {"paramId": 8, "value": 0.5, "toggle": 0}, {"paramId": 9, "value": 0.0, "toggle": 0}, {"paramId": 10, "value": 1.0, "toggle": 0}, {"paramId": 11, "value": 100.0, "toggle": 0}, {"paramId": 12, "value": 0.0, "toggle": 0}, {"paramId": 13, "value": 0.0, "toggle": 0}], "pos": [17, 0]}, {"plugin": "AudibleInstruments", "version": "1.0.0", "model": "Braids", "params": [{"paramId": 0, "value": 0.0, "toggle": 0}, {"paramId": 1, "value": 1.4980012178421021, "toggle": 0}, {"paramId": 2, "value": 0.0, "toggle": 0}, {"paramId": 3, "value": 0.001500000013038516, "toggle": 0}, {"paramId": 4, "value": 0.0, "toggle": 0}, {"paramId": 5, "value": 1.0, "toggle": 0}, {"paramId": 6, "value": 0.71499836444854736, "toggle": 0}], "data": {"settings": [33, 0, 0, 0, 0, 0, 0, 0, 0, 0, 0, 0, 0, 0, 0, 0, 0, 0, 0, 0], "lowCpu": false}, "pos": [69, 1]}, {"plugin": "Bogaudio", "version": "1.1.35", "model": "Bogaudio-VCO", "params": [{"paramId": 0, "value": -0.27299973368644714, "toggle": 0}, {"paramId": 1, "value": -0.96502858400344849, "toggle": 0}, {"paramId": 2, "value": 1.0, "toggle": 0}, {"paramId": 3, "value": -0.53742647171020508, "toggle": 0}, {"paramId": 4, "value": 0.22506356239318848, "toggle": 0}, {"paramId": 5, "value": 1.0, "toggle": 0}, {"paramId": 6, "value": 1.0, "toggle": 0}], "data": {"poly_input": 0}, "pos": [31, 1]}, {"plugin": "NYSTHI", "version": "0.6.47", "model": "PlateVerb", "params": [{"paramId": 0, "value": 0.69999998807907104, "toggle": 0}, {"paramId": 1, "value": 0.20000000298023224, "toggle": 0}, {"paramId": 2, "value": 0.5, "toggle": 0}, {"paramId": 3, "value": 0.0}, {"paramId": 4, "value": 0.0}, {"paramId": 5, "value": 0.0}, {"paramId": 6, "value": 0.0}, {"paramId": 7, "value": 0.89999997615814209, "toggle": 0}, {"paramId": 8, "value": 0.89999997615814209, "toggle": 0}, {"paramId": 9, "value": 0.30000001192092896, "toggle": 0}, {"paramId": 10, "value": 0.5, "toggle": 0}, {"paramId": 11, "value": 0.5, "toggle": 0}, {"paramId": 12, "value": 0.0, "toggle": 0}], "pos": [60, 1]}, {"plugin": "JW-Modules", "version": "0.6.3", "model": "SimpleClock", "params": [{"paramId": 0, "value": 0.49600094556808472, "toggle": 0}, {"paramId": 1, "value": 0.0, "toggle": 0}, {"paramId": 2, "value": 1.0960001945495605, "toggle": 0}, {"paramId": 3, "value": 0.0, "toggle": 0}], "data": {"running": true}, "pos": [85, 0]}, {"plugin": "NYSTHI", "version": "0.6.47", "model": "b208_random", "params": [{"paramId": 0, "value": 0.0, "toggle": 0}, {"paramId": 1, "value": 0.0, "toggle": 0}, {"paramId": 2, "value": 0.0}], "data": {}, "pos": [89, 0]}, {"plugin": "NYSTHI", "version": "0.6.47", "model": "SevenSeas", "params": [{"paramId": 0, "value": 0.0}, {"paramId": 1, "value": 0.0, "toggle": 0}, {"paramId": 2, "value": 0.0, "toggle": 0}, {"paramId": 3, "value": 0.0, "toggle": 0}, {"paramId": 4, "value": 1.0, "toggle": 0}, {"paramId": 5, "value": 0.0}, {"paramId": 6, "value": 0.0, "toggle": 0}, {"paramId": 7, "value": 0.0}, {"paramId": 8, "value": 0.0, "toggle": 0}, {"paramId": 9, "value": 0.0}, {"paramId": 10, "value": 0.0, "toggle": 0}, {"paramId": 11, "value": 0.0, "toggle": 0}, {"paramId": 12, "value": 0.0010000000474974513, "toggle": 0}, {"paramId": 13, "value": 0.0010000000474974513, "toggle": 0}, {"paramId": 14, "value": 0.0010000000474974513, "toggle": 0}, {"paramId": 15, "value": 0.0010000000474974513, "toggle": 0}, {"paramId": 16, "value": 0.0, "toggle": 0}, {"paramId": 17, "value": 0.0, "toggle": 0}, {"paramId": 18, "value": 0.0, "toggle": 0}, {"paramId": 19, "value": 0.0, "toggle": 0}, {"paramId": 20, "value": 0.0}], "data": {"m_decimate_mode": 0, "m_current_octave": 0, "m_bank": 0.0, "m_wave": 45.097896575927734, "m_pw": 0.5, "m_swarming": false, "m_morphing": true, "m_dc_block": true, "m_multithreaded": false, "m_multithreaded_processing_block": 256, "m_bank_navigator_scale": 4.0, "m_global_original_file_name": "sevenseas_default", "m_original_file_name_array": ["", "", "", "", "", "", "", "", "", "", "", "", "", "", "", "", "", "", "", "", "", "", "", "", "", "", "", "", "", "", "", "", "", "", "", "", "", "", "", "", "", "", "", "", "", "", "", "", "", "", "", "", "", "", "", "", "", "", "", "", "", "", "", ""]}, "pos": [109, 0]}, {"plugin": "Bogaudio", "version": "1.1.35", "model": "Bogaudio-VCA", "params": [{"paramId": 0, "value": 0.80000001192092896, "toggle": 0}, {"paramId": 1, "value": 0.84349948167800903, "toggle": 0}, {"paramId": 2, "value": 0.0, "toggle": 0}], "data": {}, "pos": [106, 0]}, {"plugin": "SynthKit", "version": "1.0.1", "model": "8-StepSequencer", "params": [{"paramId": 0, "value": 7.0689659118652344, "toggle": 0}, {"paramId": 1, "value": 1.6252260208129883, "toggle": 0}, {"paramId": 2, "value": 0.28966236114501953, "toggle": 0}, {"paramId": 3, "value": 6.1589794158935547, "toggle": 0}, {"paramId": 4, "value": 0.98045015335083008, "toggle": 0}, {"paramId": 5, "value": 2.389610767364502, "toggle": 0}, {"paramId": 6, "value": 2.4993476867675781, "toggle": 0}, {"paramId": 7, "value": 5.5451107025146484, "toggle": 0}, {"paramId": 8, "value": 3.6647171974182129, "toggle": 0}, {"paramId": 9, "value": 10.036865234375, "toggle": 0}, {"paramId": 10, "value": 1.8413259983062744, "toggle": 0}, {"paramId": 11, "value": 7.704413890838623, "toggle": 0}, {"paramId": 12, "value": 8.0898952484130859, "toggle": 0}, {"paramId": 13, "value": 2.5305299758911133, "toggle": 0}, {"paramId": 14, "value": 10.680743217468262, "toggle": 0}, {"paramId": 15, "value": 6.2940707206726074, "toggle": 0}], "pos": [91, 0]}, {"plugin": "AudibleInstruments", "version": "1.0.0", "model": "Braids", "params": [{"paramId": 0, "value": -1.0, "toggle": 0}, {"paramId": 1, "value": -2.0, "toggle": 0}, {"paramId": 2, "value": 0.0, "toggle": 0}, {"paramId": 3, "value": 0.86650335788726807, "toggle": 0}, {"paramId": 4, "value": 0.0, "toggle": 0}, {"paramId": 5, "value": 0.0, "toggle": 0}, {"paramId": 6, "value": 0.49350148439407349, "toggle": 0}], "data": {"settings": [23, 0, 0, 0, 0, 0, 0, 0, 0, 0, 0, 0, 0, 0, 0, 0, 0, 0, 0, 0], "lowCpu": false}, "pos": [43, 1]}, {"plugin": "NYSTHI", "version": "0.6.47", "model": "SQ1", "params": [{"paramId": 0, "value": 0.0, "toggle": 0}, {"paramId": 1, "value": 0.0, "toggle": 0}, {"paramId": 2, "value": 0.0, "toggle": 0}, {"paramId": 3, "value": 0.30523383617401123, "toggle": 0}, {"paramId": 4, "value": 8.5588541030883789, "toggle": 0}, {"paramId": 5, "value": 1.2900004386901855, "toggle": 0}, {"paramId": 6, "value": 6.5342531204223633, "toggle": 0}, {"paramId": 7, "value": 0.26679098606109619, "toggle": 0}, {"paramId": 8, "value": 1.6833478212356567, "toggle": 0}, {"paramId": 9, "value": 2.373652458190918, "toggle": 0}, {"paramId": 10, "value": 0.48888206481933594, "toggle": 0}, {"paramId": 11, "value": 3.0533468723297119, "toggle": 0}, {"paramId": 12, "value": 2.982612133026123, "toggle": 0}, {"paramId": 13, "value": 3.0463659763336182, "toggle": 0}, {"paramId": 14, "value": 4.9637699127197266, "toggle": 0}, {"paramId": 15, "value": 3.3791871070861816, "toggle": 0}, {"paramId": 16, "value": 1.4065784215927124, "toggle": 0}, {"paramId": 17, "value": 3.4956789016723633, "toggle": 0}, {"paramId": 18, "value": 9.2232875823974609, "toggle": 0}, {"paramId": 19, "value": 5.9126510620117188, "toggle": 0}, {"paramId": 20, "value": 2.6704025268554688, "toggle": 0}, {"paramId": 21, "value": 8.1534967422485352, "toggle": 0}, {"paramId": 22, "value": 0.0}, {"paramId": 23, "value": 8.2136554718017578, "toggle": 0}], "data": {"m_active": true, "m_sequence_mode": 0, "m_base_octave": 1}, "pos": [67, 1]}, {"plugin": "AudibleInstruments", "version": "1.0.0", "model": "Braids", "params": [{"paramId": 0, "value": -1.0, "toggle": 0}, {"paramId": 1, "value": -2.0, "toggle": 0}, {"paramId": 2, "value": -1.0, "toggle": 0}, {"paramId": 3, "value": 0.099000044167041779, "toggle": 0}, {"paramId": 4, "value": -1.0, "toggle": 0}, {"paramId": 5, "value": 0.0, "toggle": 0}, {"paramId": 6, "value": 0.71499806642532349, "toggle": 0}], "data": {"settings": [33, 0, 0, 0, 0, 0, 0, 0, 0, 0, 0, 0, 0, 0, 0, 0, 0, 0, 0, 0], "lowCpu": false}, "pos": [85, 1]}, {"plugin": "SubmarineFree", "version": "0.6.8", "model": "XF-201", "params": [{"paramId": 0, "value": 1.0, "toggle": 0}, {"paramId": 1, "value": 2.0, "toggle": 0}, {"paramId": 2, "value": 5.0, "toggle": 0}], "pos": [23, 1]}, {"plugin": "NYSTHI", "version": "0.6.47", "model": "M2", "params": [{"paramId": 0, "value": 0.098999977111816406, "toggle": 0}, {"paramId": 1, "value": 2.0, "toggle": 0}, {"paramId": 2, "value": 2.0, "toggle": 0}, {"paramId": 3, "value": 1.0, "toggle": 0}, {"paramId": 4, "value": 0.0}, {"paramId": 5, "value": 0.0, "toggle": 0}, {"paramId": 6, "value": 0.0, "toggle": 0}, {"paramId": 7, "value": 0.0, "toggle": 0}, {"paramId": 8, "value": 0.0, "toggle": 0}, {"paramId": 9, "value": 0.0}, {"paramId": 10, "value": 1.0, "toggle": 0}], "data": {"m_mute0": false, "m_mute1": false, "m_mute2": false, "m_mute3": false, "m_4_quadrants_VCA": true, "m_exponential_levels": false}, "pos": [78, 0]}, {"plugin": "NYSTHI", "version": "0.6.47", "model": "SQ1", "params": [{"paramId": 0, "value": 0.0, "toggle": 0}, {"paramId": 1, "value": 0.0, "toggle": 0}, {"paramId": 2, "value": 0.0, "toggle": 0}, {"paramId": 3, "value": 0.2473553866147995, "toggle": 0}, {"paramId": 4, "value": 8.0, "toggle": 0}, {"paramId": 5, "value": 1.7806465625762939, "toggle": 0}, {"paramId": 6, "value": 9.7778406143188477, "toggle": 0}, {"paramId": 7, "value": 3.4504151344299316, "toggle": 0}, {"paramId": 8, "value": 0.84916210174560547, "toggle": 0}, {"paramId": 9, "value": 7.1736292839050293, "toggle": 0}, {"paramId": 10, "value": 8.579768180847168, "toggle": 0}, {"paramId": 11, "value": 2.2105107307434082, "toggle": 0}, {"paramId": 12, "value": 7.9118561744689941, "toggle": 0}, {"paramId": 13, "value": 6.4049057960510254, "toggle": 0}, {"paramId": 14, "value": 0.92842340469360352, "toggle": 0}, {"paramId": 15, "value": 3.9363563060760498, "toggle": 0}, {"paramId": 16, "value": 1.1374479532241821, "toggle": 0}, {"paramId": 17, "value": 2.2419118881225586, "toggle": 0}, {"paramId": 18, "value": 2.1256976127624512, "toggle": 0}, {"paramId": 19, "value": 7.2015643119812012, "toggle": 0}, {"paramId": 20, "value": 1.7361247539520264, "toggle": 0}, {"paramId": 21, "value": 6.0803389549255371, "toggle": 0}, {"paramId": 22, "value": 0.0}, {"paramId": 23, "value": 6.3734416961669922, "toggle": 0}], "data": {"m_active": true, "m_sequence_mode": 0, "m_base_octave": 0}, "pos": [41, 1]}, {"plugin": "Southpole", "version": "0.6.0", "model": "CornrowsX", "params": [{"paramId": 0, "value": 0.0, "toggle": 0}, {"paramId": 1, "value": 0.0, "toggle": 0}, {"paramId": 2, "value": 0.0, "toggle": 0}, {"paramId": 3, "value": 0.5, "toggle": 0}, {"paramId": 4, "value": 0.0, "toggle": 0}, {"paramId": 5, "value": 0.5, "toggle": 0}, {"paramId": 6, "value": 0.71799981594085693, "toggle": 0}, {"paramId": 7, "value": 0.0, "toggle": 0}, {"paramId": 8, "value": 0.5, "toggle": 0}, {"paramId": 9, "value": 0.0, "toggle": 0}, {"paramId": 10, "value": 0.0, "toggle": 0}, {"paramId": 11, "value": 0.5, "toggle": 0}, {"paramId": 12, "value": 0.0, "toggle": 0}, {"paramId": 13, "value": 0.0, "toggle": 0}, {"paramId": 14, "value": 0.0, "toggle": 0}, {"paramId": 15, "value": 1.0, "toggle": 0}, {"paramId": 16, "value": 1.0, "toggle": 0}, {"paramId": 17, "value": 0.0, "toggle": 0}, {"paramId": 18, "value": 0.0, "toggle": 0}], "data": {"settings": [33, 6, 6, 0, 0, 0, 0, 0, 2, 0, 0, 0, 0, 0, 0, 7, 0, 0, 0, 0], "lowCpu": false}, "pos": [15, 2]}], "wires": [{"colorIndex": 0, "outputModuleId": 2, "outputId": 0, "inputModuleId": 5, "inputId": 0}, {"colorIndex": 0, "outputModuleId": 2, "outputId": 1, "inputModuleId": 5, "inputId": 1}, {"colorIndex": 0, "outputModuleId": 2, "outputId": 0, "inputModuleId": 3, "inputId": 0}, {"colorIndex": 0, "outputModuleId": 2, "outputId": 1, "inputModuleId": 3, "inputId": 1}, {"colorIndex": 0, "outputModuleId": 20, "outputId": 0, "inputModuleId": 2, "inputId": 1}, {"colorIndex": 0, "outputModuleId": 20, "outputId": 0, "inputModuleId": 2, "inputId": 0}, {"colorIndex": 0, "outputModuleId": 2, "outputId": 0, "inputModuleId": 7, "inputId": 0}, {"colorIndex": 0, "outputModuleId": 2, "outputId": 1, "inputModuleId": 7, "inputId": 1}, {"colorIndex": 0, "outputModuleId": 2, "outputId": 0, "inputModuleId": 6, "inputId": 0}, {"colorIndex": 0, "outputModuleId": 2, "outputId": 1, "inputModuleId": 6, "inputId": 1}, {"colorIndex": 1, "outputModuleId": 4, "outputId": 0, "inputModuleId": 0, "inputId": 0}, {"colorIndex": 2, "outputModuleId": 0, "outputId": 1, "inputModuleId": 6, "inputId": 3}, {"colorIndex": 1, "outputModuleId": 0, "outputId": 0, "inputModuleId": 6, "inputId": 2}, {"colorIndex": 2, "outputModuleId": 16, "outputId": 0, "inputModuleId": 0, "inputId": 1}, {"colorIndex": 2, "outputModuleId": 0, "outputId": 1, "inputModuleId": 19, "inputId": 2}, {"colorIndex": 3, "outputModuleId": 17, "outputId": 4, "inputModuleId": 8, "inputId": 0}, {"colorIndex": 3, "outputModuleId": 18, "outputId": 0, "inputModuleId": 10, "inputId": 1}, {"colorIndex": 3, "outputModuleId": 17, "outputId": 0, "inputModuleId": 18, "inputId": 0}, {"colorIndex": 0, "outputModuleId": 19, "outputId": 0, "inputModuleId": 20, "inputId": 0}, {"colorIndex": 1, "outputModuleId": 0, "outputId": 0, "inputModuleId": 19, "inputId": 0}, {"colorIndex": 4, "outputModuleId": 10, "outputId": 0, "inputModuleId": 20, "inputId": 1}, {"colorIndex": 4, "outputModuleId": 8, "outputId": 0, "inputModuleId": 10, "inputId": 0}, {"colorIndex": 3, "outputModuleId": 10, "outputId": 1, "inputModuleId": 20, "inputId": 2}, {"colorIndex": 4, "outputModuleId": 10, "outputId": 0, "inputModuleId": 6, "inputId": 4}, {"colorIndex": 3, "outputModuleId": 10, "outputId": 1, "inputModuleId": 6, "inputId": 5}, {"colorIndex": 0, "outputModuleId": 9, "outputId": 3, "inputModuleId": 19, "inputId": 4}]}